<?xml version="1.0" standalone="no"?>
<!DOCTYPE svg PUBLIC "-//W3C//DTD SVG 20010904//EN"
 "http://www.w3.org/TR/2001/REC-SVG-20010904/DTD/svg10.dtd">
<svg version="1.0" xmlns="http://www.w3.org/2000/svg"
 width="1280.000000pt" height="1280.000000pt" viewBox="0 0 1280.000000 1280.000000"
 preserveAspectRatio="xMidYMid meet">
<metadata>
Created by potrace 1.15, written by Peter Selinger 2001-2017
</metadata>
<g transform="translate(0.000000,1280.000000) scale(0.100000,-0.100000)"
fill="#000000" stroke="none">
<path d="M7170 10350 c-154 -8 -325 -25 -354 -36 -18 -7 -29 -36 -21 -55 4 -8
43 -41 87 -74 45 -33 192 -168 327 -299 289 -280 374 -356 402 -356 13 0 77
55 172 148 84 81 231 216 329 300 175 151 237 221 240 271 2 45 -3 76 -15 88
-15 14 -927 24 -1167 13z"/>
<path d="M4505 10329 c-325 -23 -345 -40 -192 -162 50 -40 229 -205 397 -366
168 -161 315 -299 328 -308 21 -15 26 -15 58 1 95 45 287 215 476 422 243 267
301 360 252 408 -14 14 -81 16 -607 15 -326 -1 -646 -6 -712 -10z"/>
<path d="M8484 9908 c-336 -340 -498 -511 -558 -590 -20 -27 -26 -45 -22 -61
9 -39 735 -746 1031 -1005 156 -136 257 -206 322 -222 26 -7 145 -14 263 -17
181 -4 249 -1 435 18 182 20 274 24 530 24 195 0 313 4 317 10 17 23 5 51 -49
119 -297 370 -768 903 -1318 1491 -443 475 -547 580 -575 583 -22 3 -76 -48
-376 -350z"/>
<path d="M6228 10209 c-22 -24 -128 -139 -234 -255 -107 -116 -231 -242 -277
-281 -45 -38 -139 -125 -209 -192 -127 -122 -178 -193 -178 -248 0 -35 61 -95
178 -175 59 -40 156 -117 216 -173 545 -501 673 -615 690 -615 25 0 966 957
988 1006 6 13 7 28 2 36 -5 9 -56 53 -114 99 -57 46 -224 201 -370 344 -265
261 -370 349 -517 437 -114 69 -125 70 -175 17z"/>
<path d="M3767 10177 c-18 -18 -104 -118 -193 -222 -172 -203 -385 -440 -874
-975 -669 -732 -706 -776 -728 -875 -9 -44 1 -100 21 -108 7 -2 390 -2 852 1
l839 5 66 71 c35 39 236 244 445 456 424 429 645 677 645 724 0 34 -995 956
-1032 956 -5 0 -24 -15 -41 -33z"/>
<path d="M7380 8808 c-113 -122 -272 -285 -355 -362 -82 -78 -169 -160 -192
-183 -76 -77 -112 -179 -76 -219 18 -19 25 -20 838 -13 1005 8 1091 16 1071
91 -3 12 -21 33 -40 45 -75 48 -230 188 -435 393 -119 119 -254 248 -301 287
-118 98 -247 183 -279 183 -22 0 -64 -41 -231 -222z"/>
<path d="M4977 8913 c-41 -43 -101 -109 -134 -148 -103 -121 -205 -228 -289
-306 -45 -41 -125 -114 -178 -162 -53 -49 -105 -106 -116 -127 -26 -51 -35
-112 -21 -139 l12 -21 652 0 c359 0 764 3 900 7 313 8 310 6 191 155 -98 121
-259 292 -382 402 -217 194 -506 416 -543 416 -10 0 -52 -35 -92 -77z"/>
<path d="M9197 7730 c-874 -5 -1009 -8 -1022 -21 -17 -16 -79 -229 -295 -1004
-365 -1313 -647 -2440 -814 -3253 -49 -239 -49 -262 -1 -262 19 0 54 39 182
203 810 1040 1750 2223 2558 3217 559 688 646 793 720 865 39 39 80 88 90 109
23 51 23 111 0 136 -17 19 -30 20 -214 18 -108 -1 -649 -4 -1204 -8z"/>
<path d="M5911 7709 c-934 -5 -974 -6 -987 -24 -35 -47 -30 -66 567 -2205 542
-1939 690 -2455 787 -2740 83 -242 116 -300 161 -285 25 8 13 -34 196 675 177
687 840 3237 1039 3995 123 470 142 553 131 570 -12 20 -23 20 -466 20 -250 0
-892 -3 -1428 -6z"/>
<path d="M2885 7690 c-423 -3 -771 -6 -772 -8 -1 -1 -7 -12 -14 -23 -14 -27
-39 8 350 -474 475 -588 666 -821 1246 -1520 611 -736 962 -1162 1405 -1704
441 -540 556 -654 626 -622 14 6 27 17 30 25 3 8 -28 131 -70 273 -89 305
-219 776 -541 1953 -431 1576 -571 2079 -587 2097 -11 14 -65 14 -1673 3z"/>
</g>
</svg>
